<?xml version="1.0" encoding="iso-8859-1"?>
<!-- Generator: Adobe Illustrator 19.0.0, SVG Export Plug-In . SVG Version: 6.00 Build 0)  -->
<svg version="1.1" id="Capa_1" xmlns="http://www.w3.org/2000/svg" xmlns:xlink="http://www.w3.org/1999/xlink" x="0px" y="0px"
	 viewBox="0 0 480 480" style="enable-background:new 0 0 480 480;" xml:space="preserve">
<g>
	<g>
		<path d="M440,256h-0.208c5.294-6.883,8.179-15.316,8.208-24v-16c0-22.091-17.909-40-40-40c-22.091,0-40,17.909-40,40v16
			c0.031,8.707,2.93,17.162,8.248,24.056c-13.247,0.298-25.49,7.126-32.704,18.24l-21.808,38.352l-16.48-35.792
			c-0.142-0.309-0.305-0.609-0.488-0.896c-7.074-11.666-19.449-19.09-33.072-19.84c5.353-6.904,8.273-15.384,8.304-24.12v-16
			c0-22.091-17.909-40-40-40c-22.091,0-40,17.909-40,40v16c0.031,8.707,2.93,17.162,8.248,24.056
			c-13.06,0.251-25.168,6.887-32.408,17.76c-0.24,0.361-0.452,0.741-0.632,1.136l-17,37.6l-22.048-38.736
			c-7.24-10.873-19.348-17.509-32.408-17.76c5.318-6.894,8.217-15.349,8.248-24.056v-16c0-22.091-17.909-40-40-40s-40,17.909-40,40
			v16c0.029,8.684,2.914,17.117,8.208,24H40c-22.08,0.026-39.974,17.92-40,40v64c0,4.418,3.582,8,8,8h24v104c0,4.418,3.582,8,8,8h64
			c4.418,0,8-3.582,8-8V323.888l25.216,40.352c1.462,2.339,4.026,3.76,6.784,3.76h32c2.852-0.006,5.486-1.53,6.912-4
			c0.048-0.08,0.064-0.176,0.112-0.264c0.048-0.088,0.096-0.112,0.136-0.184L200,329.888V472c0,4.418,3.582,8,8,8h64
			c4.418,0,8-3.582,8-8V329.888l16.8,33.688c0.04,0.08,0.104,0.136,0.144,0.208c0.04,0.072,0.056,0.16,0.104,0.24
			c0.18,0.279,0.377,0.547,0.592,0.8c0.178,0.259,0.37,0.507,0.576,0.744c0.298,0.292,0.619,0.56,0.96,0.8
			c0.555,0.507,1.22,0.877,1.944,1.08c0.226,0.11,0.459,0.206,0.696,0.288c0.712,0.188,1.447,0.277,2.184,0.264h32
			c2.758,0,5.322-1.421,6.784-3.76L368,323.888V472c0,4.418,3.582,8,8,8h64c4.418,0,8-3.582,8-8V368h24c4.418,0,8-3.582,8-8v-64
			C479.974,273.92,462.08,256.026,440,256z M384,216c0-13.255,10.745-24,24-24s24,10.745,24,24v16c0,13.255-10.745,24-24,24
			s-24-10.745-24-24V216z M216,216c0-13.255,10.745-24,24-24s24,10.745,24,24v16c0,13.255-10.745,24-24,24s-24-10.745-24-24V216z
			 M48,216c0-13.255,10.745-24,24-24s24,10.745,24,24v16c0,13.255-10.745,24-24,24s-24-10.745-24-24V216z M96,464H80v-80H64v80H48
			v-96h48V464z M148.432,352l-37.648-60.24c-2.342-3.747-7.277-4.886-11.024-2.544C97.421,290.678,96,293.242,96,296v56H48v-56H32
			v56H16v-56c0-13.255,10.745-24,24-24h24v64h16v-64h21.88c0.456,0,0.92,0,1.376,0.04h0.24c0.347,0,0.683,0,1.008,0
			c7.25,0.438,13.899,4.177,18.04,10.144L162.248,352H148.432z M264,464h-16v-80h-16v80h-16v-96h48V464z M304,342.112l-24.8-49.688
			c-1.925-3.977-6.71-5.64-10.687-3.714c-2.79,1.351-4.548,4.191-4.513,7.29v56h-48v-56c0.004-4.418-3.574-8.003-7.992-8.008
			c-3.037-0.003-5.813,1.714-7.167,4.432L176,342.112l-7.144-14.28l20.64-45.648c4.497-6.387,11.821-10.186,19.632-10.184H232v64h16
			v-64h21.88c8.632,0.103,16.6,4.656,21.072,12.04l20.176,43.816L304,342.112z M432,464h-16v-80h-16v80h-16v-96h48V464z M464,352
			h-16v-56h-16v56h-48v-56c0-4.418-3.582-8-8-8c-2.758,0-5.322,1.421-6.784,3.76L331.568,352h-13.816l39.408-69.312
			c4.123-6.205,10.902-10.136,18.336-10.632c0.328,0,0.664,0,1,0h0.248c0.456,0,0.92-0.04,1.376-0.04H400v64h16V272h24
			c13.255,0,24,10.745,24,24V352z"/>
	</g>
</g>
<g>
	<g>
		<path d="M240,0C107.514,0.15,0.15,107.514,0,240v8h16v-8c-0.03-33.215,7.369-66.015,21.656-96h73.264
			c-2.568,10.152-4.8,20.392-6.4,30.768l15.808,2.464c1.78-11.195,4.152-22.288,7.104-33.232H232v16h16v-16h104.952
			c2.966,10.941,5.35,22.031,7.144,33.224l15.808-2.448c-1.6-10.4-3.88-20.616-6.4-30.776h72.88
			c14.273,29.988,21.659,62.789,21.616,96v8h16v-8C479.85,107.514,372.486,0.15,240,0z M164,29.288
			c-6.152,8.656-11.944,17.544-17.272,26.712h-34.264C128.408,44.892,145.733,35.913,164,29.288z M115.32,128H46.136
			c12.194-21.02,27.706-39.931,45.936-56h45.816C128.729,89.965,121.177,108.704,115.32,128z M232,128h-99.856
			c6.234-19.375,14.269-38.123,24-56H232V128z M232.032,56h-66.6c6.262-10.176,13.08-19.999,20.424-29.424l3.776-4.8
			c13.922-3.22,28.12-5.095,42.4-5.6V56z M367.536,56h-33.88c-5.296-9.104-11.019-17.949-17.168-26.536
			C334.575,36.075,351.733,44.994,367.536,56z M248,16.2c14.428,0.508,28.772,2.412,42.832,5.688l3.688,4.688
			c7.349,9.423,14.17,19.246,20.432,29.424H248V16.2z M248,128V72h76.232c9.734,17.875,17.769,36.624,24,56H248z M365.064,128
			c-5.86-19.294-13.412-38.034-22.568-56h45.432c18.23,16.069,33.742,34.98,45.936,56H365.064z"/>
	</g>
</g>
<g>
	<g>
		<rect x="128" y="216" width="16" height="16"/>
	</g>
</g>
<g>
	<g>
		<rect x="160" y="216" width="16" height="16"/>
	</g>
</g>
<g>
	<g>
		<rect x="304" y="216" width="16" height="16"/>
	</g>
</g>
<g>
	<g>
		<rect x="336" y="216" width="16" height="16"/>
	</g>
</g>
<g>
</g>
<g>
</g>
<g>
</g>
<g>
</g>
<g>
</g>
<g>
</g>
<g>
</g>
<g>
</g>
<g>
</g>
<g>
</g>
<g>
</g>
<g>
</g>
<g>
</g>
<g>
</g>
<g>
</g>
</svg>
