<?xml version="1.0" encoding="UTF-8" standalone="no"?>
<!-- Generator: Adobe Illustrator 16.0.0, SVG Export Plug-In . SVG Version: 6.00 Build 0)  -->

<svg
   xmlns:dc="http://purl.org/dc/elements/1.1/"
   xmlns:cc="http://creativecommons.org/ns#"
   xmlns:rdf="http://www.w3.org/1999/02/22-rdf-syntax-ns#"
   xmlns:svg="http://www.w3.org/2000/svg"
   xmlns="http://www.w3.org/2000/svg"
   xmlns:sodipodi="http://sodipodi.sourceforge.net/DTD/sodipodi-0.dtd"
   xmlns:inkscape="http://www.inkscape.org/namespaces/inkscape"
   version="1.1"
   id="Capa_1"
   x="0px"
   y="0px"
   width="556.38px"
   height="556.38px"
   viewBox="0 0 556.38 556.38"
   style="enable-background:new 0 0 556.38 556.38;"
   xml:space="preserve"
   inkscape:version="0.91 r13725"
   sodipodi:docname="male.svg"><metadata
     id="metadata45"><rdf:RDF><cc:Work
         rdf:about=""><dc:format>image/svg+xml</dc:format><dc:type
           rdf:resource="http://purl.org/dc/dcmitype/StillImage" /></cc:Work></rdf:RDF></metadata><defs
     id="defs43" /><sodipodi:namedview
     pagecolor="#ffffff"
     bordercolor="#666666"
     borderopacity="1"
     objecttolerance="10"
     gridtolerance="10"
     guidetolerance="10"
     inkscape:pageopacity="0"
     inkscape:pageshadow="2"
     inkscape:window-width="1920"
     inkscape:window-height="1017"
     id="namedview41"
     showgrid="false"
     inkscape:zoom="1.4382032"
     inkscape:cx="246.28127"
     inkscape:cy="278.19"
     inkscape:window-x="1912"
     inkscape:window-y="-8"
     inkscape:window-maximized="1"
     inkscape:current-layer="Capa_1" /><g
     id="g3"
     style="fill:#2a7fff"><g
       id="g5"
       style="fill:#2a7fff"><path
         d="M188.434,315.146c11.767,0,21.31-9.534,21.315-21.301c0.009-0.004,0.028-130.165,0.028-130.165    c0-1.224,0.99-2.218,2.219-2.218h4.513c1.224,0,2.219,0.99,2.219,2.218c0,0,0,365.168,0,365.211    c0,15.181,12.307,27.487,27.487,27.487c15.181,0,27.487-12.307,27.487-27.487c0-0.043,0-214.884,0-214.884    c0-1.568,0.727-2.219,2.271-2.219h4.432c1.549,0,2.271,0.655,2.271,2.219c0,0,0,214.846,0,214.884    c0,15.181,12.308,27.487,27.488,27.487c15.18,0,27.487-12.307,27.487-27.487c0-0.043,0-365.211,0-365.211    c0-1.224,0.989-2.218,2.218-2.218h4.514c1.225,0,2.219,0.99,2.219,2.218c0,0,0.02,130.161,0.028,130.165    c0.01,11.767,9.549,21.301,21.315,21.301c11.771,0,21.319-9.543,21.319-21.319c0-0.067,0-146.359,0-148.104    c0-29.17-22.443-51.614-50.49-51.614c-0.712,0-38.417,0-56.099,0c0,0-3.543,0-8.974,0c-17.681,0-55.386,0-56.098,0    c-28.052,0-50.49,22.438-50.49,51.614c0,1.745,0,148.037,0,148.104C167.114,305.604,176.658,315.146,188.434,315.146z"
         id="path7"
         style="fill:#2a7fff" /><circle
         cx="278.192"
         cy="40.904"
         r="40.904"
         id="circle9"
         style="fill:#2a7fff" /></g></g><g
     id="g11" /><g
     id="g13" /><g
     id="g15" /><g
     id="g17" /><g
     id="g19" /><g
     id="g21" /><g
     id="g23" /><g
     id="g25" /><g
     id="g27" /><g
     id="g29" /><g
     id="g31" /><g
     id="g33" /><g
     id="g35" /><g
     id="g37" /><g
     id="g39" /></svg>